HIERARCHY
ROOT Hips
{
	OFFSET 0.000000 0.000000 0.000000
	CHANNELS 6 Xposition Yposition Zposition Zrotation Yrotation Xrotation 
	JOINT LHipJoint
	{
		OFFSET 0.000000 0.000000 0.000000
		CHANNELS 3 Zrotation Yrotation Xrotation
		JOINT LeftUpLeg
		{
			OFFSET 1.363060 -1.794630 0.839290
			CHANNELS 3 Zrotation Yrotation Xrotation
			JOINT LeftLeg
			{
				OFFSET 2.448110 -6.726130 0.000000
				CHANNELS 3 Zrotation Yrotation Xrotation
				JOINT LeftFoot
				{
					OFFSET 2.562200 -7.039590 0.000000
					CHANNELS 3 Zrotation Yrotation Xrotation
					JOINT LeftToeBase
					{
						OFFSET 0.157640 -0.433110 2.322550
						CHANNELS 3 Zrotation Yrotation Xrotation
						End Site
						{
							OFFSET 0.000000 0.000000 0.000000
						}
					}
				}
			}
		}
	}
	JOINT RHipJoint
	{
		OFFSET 0.000000 0.000000 0.000000
		CHANNELS 3 Zrotation Yrotation Xrotation
		JOINT RightUpLeg
		{
			OFFSET -1.305520 -1.794630 0.839290
			CHANNELS 3 Zrotation Yrotation Xrotation
			JOINT RightLeg
			{
				OFFSET -2.542530 -6.985550 0.000000
				CHANNELS 3 Zrotation Yrotation Xrotation
				JOINT RightFoot
				{
					OFFSET -2.568260 -7.056230 0.000000
					CHANNELS 3 Zrotation Yrotation Xrotation
					JOINT RightToeBase
					{
						OFFSET -0.164730 -0.452590 2.363150
						CHANNELS 3 Zrotation Yrotation Xrotation
						End Site
						{
							OFFSET 0.000000 0.000000 0.000000
						}
					}
				}
			}
		}
	}
	JOINT LowerBack
	{
		OFFSET 0.000000 0.000000 0.000000
		CHANNELS 3 Zrotation Yrotation Xrotation
		JOINT Spine
		{
			OFFSET 0.028270 2.035590 -0.193380
			CHANNELS 3 Zrotation Yrotation Xrotation
			JOINT Spine1
			{
				OFFSET 0.056720 2.048850 -0.042750
				CHANNELS 3 Zrotation Yrotation Xrotation
				JOINT Neck
				{
					OFFSET 0.000000 0.000000 0.000000
					CHANNELS 3 Zrotation Yrotation Xrotation
					JOINT Neck1
					{
						OFFSET -0.054170 1.746240 0.172020
						CHANNELS 3 Zrotation Yrotation Xrotation
						JOINT Head
						{
							OFFSET 0.104070 1.761360 -0.123970
							CHANNELS 3 Zrotation Yrotation Xrotation
							End Site
							{
								OFFSET 0.000000 0.000000 0.000000
							}
						}
					}
				}
				JOINT LeftShoulder
				{
					OFFSET 0.000000 0.000000 0.000000
					CHANNELS 3 Zrotation Yrotation Xrotation
					JOINT LeftArm
					{
						OFFSET 3.362410 1.200890 -0.311210
						CHANNELS 3 Zrotation Yrotation Xrotation
						JOINT LeftForeArm
						{
							OFFSET 4.983000 -0.000000 -0.000000
							CHANNELS 3 Zrotation Yrotation Xrotation
							JOINT LeftHand
							{
								OFFSET 3.483560 -0.000000 -0.000000
								CHANNELS 3 Zrotation Yrotation Xrotation
								JOINT LeftFingerBase
								{
									OFFSET 0.000000 0.000000 0.000000
									CHANNELS 3 Zrotation Yrotation Xrotation
									JOINT LeftHandIndex1
									{
										OFFSET 0.715260 -0.000000 -0.000000
										CHANNELS 3 Zrotation Yrotation Xrotation
										End Site
										{
											OFFSET 0.000000 0.000000 0.000000
										}
									}
								}
								JOINT LThumb
								{
									OFFSET 0.000000 0.000000 0.000000
									CHANNELS 3 Zrotation Yrotation Xrotation
									End Site
									{
										OFFSET 0.000000 0.000000 0.000000
									}
								}
							}
						}
					}
				}
				JOINT RightShoulder
				{
					OFFSET 0.000000 0.000000 0.000000
					CHANNELS 3 Zrotation Yrotation Xrotation
					JOINT RightArm
					{
						OFFSET -3.136600 1.374050 -0.404650
						CHANNELS 3 Zrotation Yrotation Xrotation
						JOINT RightForeArm
						{
							OFFSET -5.241900 -0.000000 -0.000000
							CHANNELS 3 Zrotation Yrotation Xrotation
							JOINT RightHand
							{
								OFFSET -3.444170 -0.000000 -0.000000
								CHANNELS 3 Zrotation Yrotation Xrotation
								JOINT RightFingerBase
								{
									OFFSET 0.000000 0.000000 0.000000
									CHANNELS 3 Zrotation Yrotation Xrotation
									JOINT RightHandIndex1
									{
										OFFSET -0.622530 -0.000000 -0.000000
										CHANNELS 3 Zrotation Yrotation Xrotation
										End Site
										{
											OFFSET 0.000000 0.000000 0.000000
										}
									}
								}
								JOINT RThumb
								{
									OFFSET 0.000000 0.000000 0.000000
									CHANNELS 3 Zrotation Yrotation Xrotation
									End Site
									{
										OFFSET 0.000000 0.000000 0.000000
									}
								}
							}
						}
					}
				}
			}
		}
	}
}
MOTION
Frames: 7
Frame Time: 0.008333
31.426973 19.395093 -2.073797 -0.856364 3.489327 8.632921 -17.329597 4.741342 6.036617 5.089019 -1.859035 -17.548959 -1.096161 -14.466139 22.335239 -19.743813 24.448368 -3.985325 -0.294443 -2.557630 0.167635 15.186655 -4.929567 5.221897 -2.499389 1.267963 -19.383082 0.499869 3.305003 25.732955 19.798800 -14.287706 -9.212239 0.289819 0.994811 -0.488480 2.081129 0.291818 -1.475584 0.656248 0.238114 -4.437796 -1.207375 0.085980 0.783756 -2.165810 -0.374331 -5.396135 6.647306 -2.583390 18.282799 -0.943199 -0.797137 -0.637767 5.898928 -6.647593 5.915378 -81.861530 -4.832777 32.497185 79.834396 -75.164081 140.582586 157.564090 -54.224526 -125.066270 -10.294961 4.893412 -0.000000 0.000000 0.000000 0.000000 0.000000 0.000000 0.000000 -4.928192 6.970868 0.499831 79.492794 2.858020 38.715853 -65.684616 72.599151 -74.077248 -6.377171 -0.044233 14.455787 4.522741 -3.940337 0.000000 0.000000 0.000000 0.000000 0.000000 0.000000 0.000000
31.443029 19.361407 -2.067343 -0.767625 3.220819 8.743482 -17.459853 4.698837 5.954745 5.202465 -2.745637 -16.873226 -1.879098 -16.429237 23.127281 -20.761032 27.061235 -6.537375 -0.278975 -2.490929 0.222029 15.141055 -4.786539 5.171406 -2.716424 2.177429 -18.741764 -1.099614 0.011384 23.824587 19.165695 -11.892456 -7.262225 0.290257 0.990471 -0.356579 2.397879 0.195502 -1.012019 0.765898 0.143354 -4.524976 -1.936277 0.037591 -1.598554 -2.325091 -0.218105 -4.171941 6.932186 -2.556921 18.402585 -1.032180 -0.716888 -0.794783 6.267021 -5.822101 4.097127 -87.104766 -9.929074 12.146127 -59.001380 -67.362937 85.895082 3.984690 -0.799889 4.131792 -1.453613 1.803910 0.000000 0.000000 0.000000 0.000000 0.000000 0.000000 0.000000 -5.875259 5.888495 -0.511054 80.697789 2.501946 44.533779 -59.232007 68.527710 -70.248879 -7.114680 2.566819 14.095178 3.963154 -1.641249 0.000000 0.000000 0.000000 0.000000 0.000000 0.000000 0.000000
31.437244 19.325017 -2.076132 -0.725867 3.530873 8.881068 -17.660825 4.750602 6.027379 5.378190 -3.154950 -16.658875 -1.537977 -16.693610 22.558107 -20.862315 27.266815 -6.518470 -0.250473 -2.367982 0.320979 15.054657 -4.768103 5.196043 -2.750092 3.071569 -18.268017 -2.261754 -2.969845 22.225566 18.722926 -10.410996 -5.570733 0.289154 0.984470 -0.305290 2.652367 0.001865 -0.868521 0.828908 -0.066152 -4.573954 -2.537643 -0.223130 -1.629238 -2.419493 -0.197697 -4.391249 7.206536 -2.568367 18.289130 -1.425611 -0.656653 -1.292197 5.824244 -6.254102 4.647113 -85.587591 -9.590660 12.564370 -63.232094 -69.640291 87.853109 3.447394 0.702928 3.468212 -1.829361 3.339076 0.000000 0.000000 0.000000 0.000000 0.000000 0.000000 0.000000 -5.937727 5.988697 -0.855874 80.991680 2.818086 45.399878 -58.314921 68.159605 -68.779020 -6.953315 2.979107 13.981403 3.781426 -1.381917 0.000000 0.000000 0.000000 0.000000 0.000000 0.000000 0.000000
31.443106 19.288923 -2.085924 -0.654891 3.259905 8.926666 -17.800701 4.781821 6.334127 5.821276 -4.454456 -16.349556 -1.144290 -14.988923 21.504825 -20.751839 27.231241 -6.136272 -0.233309 -2.254862 0.342270 14.886458 -4.611790 5.308535 -2.864851 4.148551 -17.914011 -2.228681 -3.034064 22.114124 19.252723 -11.203786 -6.388958 0.238522 0.799562 0.042513 3.378848 -0.490352 -1.489604 0.728461 -0.664790 -4.474855 -3.730281 -0.813361 -0.234053 -2.679827 -0.209009 -4.372769 7.298466 -2.429742 17.629279 -1.359105 -0.553187 -1.560249 4.364801 -9.424831 5.319628 -82.826399 -5.937793 28.604146 84.088808 -85.372589 -90.063564 3.698086 3.522832 2.987546 -1.707929 6.234012 0.000000 0.000000 0.000000 0.000000 0.000000 0.000000 0.000000 -5.414461 8.528883 -0.679767 81.058682 4.006628 44.895604 -58.563896 68.099046 -69.505186 -6.965324 2.938914 13.830166 3.866402 -1.606549 0.000000 0.000000 0.000000 0.000000 0.000000 0.000000 0.000000
31.445820 19.247932 -2.094971 -0.893863 3.464900 8.970562 -17.650432 4.768480 6.423401 6.102878 -5.321464 -15.823430 1.305505 -9.115704 17.738857 -19.313037 23.109887 -1.280842 -0.260747 -2.251492 0.131982 15.110315 -4.633505 5.389773 -2.860840 4.611366 -17.631314 -3.813012 -7.132642 20.114090 18.039277 -8.191398 -3.319646 0.247923 0.829653 0.079989 2.740821 -0.345063 -1.447583 0.847526 -0.422858 -4.729281 -2.243588 -0.566036 -1.474511 -2.420536 -0.113465 -2.681691 6.938219 -2.279581 17.169761 -1.275845 -0.545450 -1.534447 5.759620 -8.749026 1.937625 -85.799222 -5.550599 44.330979 61.941983 -69.474510 -87.623947 3.470917 -0.367316 2.106597 -1.772432 2.234461 0.000000 0.000000 0.000000 0.000000 0.000000 0.000000 0.000000 -5.575726 8.429355 0.374989 79.993597 3.474681 44.512717 -58.724005 68.183743 -70.208710 -7.467065 2.953245 13.479112 3.969090 -1.443245 0.000000 0.000000 0.000000 0.000000 0.000000 0.000000 0.000000
31.446845 19.205798 -2.100689 -1.061536 3.664988 8.927834 -17.523663 4.724011 6.492966 6.432553 -6.280324 -15.291695 1.869595 -7.089988 16.519578 -19.103117 22.173049 -0.207918 -0.262812 -2.272777 0.136502 15.260419 -4.672210 5.491346 -3.004686 5.617824 -17.136174 -4.573488 -9.900796 18.851963 17.459421 -6.822914 -2.010949 0.175046 0.560426 0.917793 2.294602 -0.119683 -1.440771 0.775019 -0.158752 -4.664103 -1.021689 -0.216260 -0.975192 -2.224230 -0.081322 -2.912100 6.719648 -2.163832 16.994840 -1.370156 -0.484562 -2.131537 5.658240 -9.182365 0.657728 -86.451733 -6.369722 47.636593 58.152716 -66.020472 -84.922104 3.132263 -1.700142 1.627658 -1.962103 1.037480 0.000000 0.000000 0.000000 0.000000 0.000000 0.000000 0.000000 -4.472465 9.380731 2.281066 77.759146 2.994587 38.506307 -65.973591 72.978467 -74.775581 -7.087583 0.463320 13.475011 4.669141 -4.041107 0.000000 0.000000 0.000000 0.000000 0.000000 0.000000 0.000000
31.446414 19.169516 -2.107323 -0.986020 3.409033 9.094373 -17.618927 4.706265 6.397843 6.526176 -6.779064 -14.917817 2.900673 -3.684589 14.752315 -18.269674 19.779317 2.060343 -0.273343 -2.302442 0.084865 15.250624 -4.533422 5.265466 -2.968655 5.921664 -16.770299 -6.048819 -13.389520 17.502818 16.316872 -3.660925 0.459322 0.205970 0.688104 0.109221 2.410859 -0.479853 -0.506017 0.749420 -0.526101 -4.623610 -1.235039 -0.575086 -2.356228 -2.297237 -0.092045 -3.807899 6.573016 -2.024420 17.484610 -1.126227 -0.379406 -2.285263 5.694366 -6.869300 0.085273 -86.178864 -5.692431 49.300450 57.029906 -65.106910 -83.332459 2.965426 -2.125410 1.188420 -2.000790 0.741801 0.000000 0.000000 0.000000 0.000000 0.000000 0.000000 0.000000 -4.635562 6.712585 2.707098 77.779897 6.634482 7.927532 60.842226 66.898463 99.707046 -7.083088 0.046763 12.871340 4.614637 -4.337919 -0.000000 0.000000 0.000000 0.000000 0.000000 0.000000 0.000000
